<svg width="1000" height="600" viewBox="0 0 1000 600" xmlns="http://www.w3.org/2000/svg">
  <!-- Фон карты -->
  <rect width="1000" height="600" fill="#F5F5F5"/>

  <!-- Континенты (упрощенная версия) -->
  <g fill="#E0E0E0" stroke="#FFFFFF" stroke-width="1">
    <!-- Евразия (упрощенная форма) -->
    <path d="M450 100
             C600 50, 750 100, 850 150
             L900 200
             C920 250, 900 300, 850 350
             L800 400
             C750 450, 600 450, 450 400
             L400 350
             C350 300, 300 250, 350 200
             L400 150
             Z" />

    <!-- Европа (детали) -->
    <path d="M450 150
             C500 120, 550 150, 580 180
             L600 200
             C620 220, 630 250, 620 280
             L600 300
             C580 320, 550 330, 520 320
             L500 300
             C480 280, 470 250, 480 220
             Z" />

    <!-- Африка -->
    <path d="M450 300
             C500 280, 550 300, 580 350
             L600 400
             C620 450, 600 500, 550 520
             L500 530
             C450 540, 400 520, 380 480
             L370 450
             C360 400, 380 350, 420 320
             Z" />

    <!-- Северная Америка -->
    <path d="M100 100
             C150 80, 200 100, 250 150
             L300 200
             C320 250, 300 300, 250 320
             L200 330
             C150 340, 100 320, 80 280
             L70 250
             C60 200, 80 150, 120 120
             Z" />

    <!-- Южная Америка -->
    <path d="M150 350
             C200 330, 250 350, 280 400
             L300 450
             C320 500, 300 550, 250 570
             L200 580
             C150 590, 100 570, 80 530
             L70 500
             C60 450, 80 400, 120 370
             Z" />
  </g>

  <!-- Граница России и Казахстана (упрощенная) -->
  <path d="M550 180
           C600 170, 650 180, 700 200
           L750 220
           C800 240, 820 270, 810 300
           L800 320
           C780 350, 750 360, 720 350
           L700 340
           C650 320, 620 280, 630 250
           Z"
        fill="#D0D0D0" stroke="#FFFFFF" stroke-width="1"/>

  <!-- Сетка для ориентации -->
  <g stroke="#FFFFFF" stroke-width="0.5" opacity="0.2">
    <!-- Параллели -->
    <line x1="0" y1="150" x2="1000" y2="150"/>
    <line x1="0" y1="300" x2="1000" y2="300"/>
    <line x1="0" y1="450" x2="1000" y2="450"/>

    <!-- Меридианы -->
    <line x1="250" y1="0" x2="250" y2="600"/>
    <line x1="500" y1="0" x2="500" y2="600"/>
    <line x1="750" y1="0" x2="750" y2="600"/>
  </g>

  <!-- Декоративные элементы -->
  <path d="M0 580 C250 550, 750 550, 1000 580"
        fill="none" stroke="#0066FF" stroke-width="1" opacity="0.1"/>
  <path d="M0 590 C250 560, 750 560, 1000 590"
        fill="none" stroke="#FF5733" stroke-width="1" opacity="0.1"/>
</svg>
